<?xml version="1.0" standalone="no"?>
<!DOCTYPE svg PUBLIC "-//W3C//DTD SVG 20010904//EN"
 "http://www.w3.org/TR/2001/REC-SVG-20010904/DTD/svg10.dtd">
<svg version="1.0" xmlns="http://www.w3.org/2000/svg"
 width="512.000000pt" height="512.000000pt" viewBox="0 0 512.000000 512.000000"
 preserveAspectRatio="xMidYMid meet">

<g transform="translate(0.000000,512.000000) scale(0.100000,-0.100000)"
fill="#000000" stroke="none">
<path d="M185 4935 c-32 -31 -33 -78 -2 -109 17 -17 39 -24 86 -29 73 -8 168
-54 207 -100 14 -16 37 -53 52 -81 l27 -51 3 -1202 2 -1203 80 0 80 0 -2 1213
-3 1212 -23 58 c-13 31 -39 80 -57 107 l-34 50 1300 0 1299 0 0 80 0 80 -1495
0 -1496 0 -24 -25z"/>
<path d="M3765 4950 c-347 -55 -662 -297 -798 -616 -145 -337 -104 -724 107
-1018 52 -72 171 -191 241 -242 54 -38 188 -109 245 -129 l35 -12 5 -509 5
-509 24 -50 c32 -63 92 -124 156 -155 41 -20 65 -25 135 -24 72 0 93 4 136 26
75 39 107 70 145 140 l34 63 5 508 5 508 56 23 c183 74 354 209 471 371 151
210 216 497 173 760 -66 410 -372 741 -780 846 -92 23 -305 33 -400 19z m296
-165 c289 -50 521 -223 645 -480 68 -140 87 -225 87 -385 0 -160 -19 -245 -86
-385 -110 -228 -319 -398 -572 -466 -113 -31 -316 -31 -430 -1 -251 68 -462
240 -572 467 -67 140 -86 225 -86 385 0 160 19 245 87 385 168 348 551 546
927 480z m19 -1980 l0 -85 -120 0 -120 0 0 80 0 79 103 4 c56 1 110 4 120 5
15 2 17 -8 17 -83z m-2 -547 c-3 -282 -4 -305 -23 -336 -26 -43 -73 -72 -121
-75 -35 -2 -40 1 -63 43 l-26 45 -3 313 -3 312 121 0 121 0 -3 -302z"/>
<path d="M3920 4644 l0 -80 79 -11 c154 -23 264 -77 371 -183 177 -178 234
-429 151 -665 -31 -88 -79 -162 -151 -235 -107 -106 -217 -160 -371 -183 l-79
-11 0 -79 0 -80 68 6 c278 23 530 198 652 451 61 127 74 190 74 346 0 156 -13
219 -74 346 -122 253 -371 427 -647 451 l-73 6 0 -79z"/>
<path d="M3783 4459 c-94 -36 -183 -155 -183 -244 0 -24 2 -25 78 -25 l78 0
14 42 c21 58 57 81 133 86 104 7 160 -29 174 -111 10 -61 -18 -98 -123 -168
-52 -34 -99 -70 -105 -80 -5 -10 -9 -58 -9 -108 l0 -91 80 0 80 0 0 59 0 59
65 42 c119 78 175 166 175 276 0 110 -81 224 -185 263 -75 28 -199 28 -272 0z"/>
<path d="M3840 3520 l0 -80 80 0 80 0 0 80 0 80 -80 0 -80 0 0 -80z"/>
<path d="M1040 4240 l0 -80 800 0 800 0 0 80 0 80 -800 0 -800 0 0 -80z"/>
<path d="M1040 3840 l0 -80 800 0 800 0 0 80 0 80 -800 0 -800 0 0 -80z"/>
<path d="M1040 3440 l0 -80 800 0 800 0 0 80 0 80 -800 0 -800 0 0 -80z"/>
<path d="M3298 2918 c-30 -46 -141 -218 -248 -384 l-194 -301 -47 5 c-36 3
-60 -2 -107 -23 l-60 -27 -398 239 -399 239 -6 59 c-8 79 -20 106 -69 159 -94
101 -235 102 -335 1 -70 -69 -92 -153 -64 -235 l12 -32 -359 -359 c-291 -292
-363 -359 -379 -354 -100 30 -180 11 -250 -59 -101 -102 -101 -230 0 -331 101
-101 229 -101 331 0 70 70 89 150 59 250 -5 16 62 88 354 379 l359 359 32 -12
c52 -18 108 -13 170 15 l58 26 399 -239 398 -239 6 -60 c7 -77 31 -126 85
-173 99 -87 224 -82 319 14 78 78 95 166 51 262 l-24 51 235 364 c129 200 241
373 248 385 14 20 11 23 -51 62 -36 23 -67 41 -69 41 -2 0 -28 -37 -57 -82z
m-1664 -129 c58 -27 55 -115 -5 -139 -63 -26 -125 36 -100 99 19 44 60 60 105
40z m1200 -720 c58 -27 55 -115 -5 -139 -63 -26 -125 36 -100 99 19 44 60 60
105 40z m-2240 -320 c58 -27 55 -115 -5 -139 -63 -26 -125 36 -100 99 19 44
60 60 105 40z"/>
<path d="M4080 1160 l0 -360 -1334 0 c-1295 0 -1334 -1 -1357 -19 -21 -17 -24
-30 -30 -124 -6 -93 -11 -112 -40 -166 -36 -69 -68 -100 -143 -139 -43 -22
-64 -26 -136 -26 -78 -1 -90 2 -148 33 -70 38 -100 69 -140 145 l-27 51 -3
363 -3 362 -80 0 -79 0 0 -348 c0 -376 4 -411 56 -514 59 -116 196 -220 326
-247 37 -8 537 -11 1693 -9 l1640 3 66 26 c96 37 148 70 213 135 95 95 151
216 163 349 5 69 4 74 -20 99 l-26 26 -216 0 -215 0 0 360 0 360 -80 0 -80 0
0 -360z m470 -532 c0 -7 -13 -41 -30 -76 -38 -82 -112 -155 -198 -195 l-67
-32 -1427 -3 -1427 -2 34 50 c42 62 73 144 81 215 l7 55 1513 0 c1205 0 1514
-3 1514 -12z"/>
<path d="M1040 1360 l0 -80 1360 0 1360 0 0 80 0 80 -1360 0 -1360 0 0 -80z"/>
<path d="M1280 1040 l0 -80 160 0 160 0 0 80 0 80 -160 0 -160 0 0 -80z"/>
<path d="M2240 1040 l0 -80 160 0 160 0 0 80 0 80 -160 0 -160 0 0 -80z"/>
<path d="M3200 1040 l0 -80 160 0 160 0 0 80 0 80 -160 0 -160 0 0 -80z"/>
</g>
</svg>
