<?xml version="1.0" standalone="no"?>
<!DOCTYPE svg PUBLIC "-//W3C//DTD SVG 20010904//EN"
 "http://www.w3.org/TR/2001/REC-SVG-20010904/DTD/svg10.dtd">
<svg version="1.0" xmlns="http://www.w3.org/2000/svg"
 width="512.000000pt" height="512.000000pt" viewBox="0 0 512.000000 512.000000"
 preserveAspectRatio="xMidYMid meet">

<g transform="translate(0.000000,512.000000) scale(0.100000,-0.100000)"
fill="#000000" stroke="none">
<path d="M1937 5069 c-91 -21 -171 -84 -216 -168 -58 -109 -53 -235 14 -341
l24 -37 -26 -39 c-15 -21 -52 -84 -82 -141 l-56 -103 -190 -4 c-290 -6 -570
-64 -762 -159 -213 -105 -391 -312 -448 -522 -26 -94 -31 -282 -11 -390 33
-172 115 -372 221 -537 l45 -68 -66 -111 c-81 -134 -147 -286 -180 -417 -33
-126 -42 -307 -21 -407 l15 -70 -39 -43 c-83 -95 -104 -244 -50 -357 60 -126
182 -201 316 -193 73 5 153 34 190 68 21 19 22 19 100 -15 216 -92 493 -141
753 -133 l129 4 48 -94 c262 -513 671 -802 1055 -743 204 32 351 112 530 291
137 136 227 259 323 440 l55 103 134 -2 c231 -3 445 29 662 100 188 62 308
136 423 264 195 216 253 485 174 797 -35 137 -116 316 -204 452 l-44 68 52 83
c102 162 177 342 209 502 20 96 22 260 6 356 l-12 67 32 37 c56 63 74 117 74
213 0 101 -20 154 -85 225 -104 113 -280 140 -410 62 l-54 -32 -91 37 c-193
79 -405 118 -683 124 l-184 4 -54 102 c-93 174 -187 303 -318 434 -183 184
-343 270 -550 296 -78 10 -108 9 -194 -5 -56 -9 -134 -30 -175 -47 l-73 -31
-51 35 c-75 50 -165 66 -255 45z m153 -179 c52 -26 82 -72 88 -131 6 -60 -10
-100 -54 -139 -136 -119 -331 26 -260 193 36 85 140 121 226 77z m635 5 c239
-50 476 -264 658 -593 l45 -81 -31 -5 c-18 -3 -66 -10 -107 -16 -184 -27 -438
-85 -601 -136 l-81 -25 -157 44 c-182 52 -352 90 -536 118 -71 11 -131 22
-133 24 -4 4 79 156 104 190 9 12 17 13 38 5 46 -17 150 -12 210 11 73 27 148
96 183 167 24 50 27 69 28 155 l0 99 35 15 c97 41 229 52 345 28z m-1205 -831
c0 -4 -21 -66 -46 -138 -45 -130 -101 -335 -124 -453 l-12 -61 -81 -58 c-216
-154 -483 -397 -635 -576 -75 -90 -62 -95 -141 53 -100 187 -142 340 -142 509
0 173 49 299 166 427 132 147 354 243 660 288 93 13 355 20 355 9z m2510 -9
c188 -27 439 -106 431 -136 -13 -53 -12 -151 3 -197 49 -146 165 -232 318
-235 66 -2 68 -3 74 -32 4 -16 7 -75 7 -130 -2 -163 -64 -359 -172 -544 l-44
-74 -50 59 c-155 182 -453 454 -650 592 -43 30 -80 60 -82 66 -1 6 -17 74 -35
151 -26 113 -112 397 -145 478 -7 16 3 17 116 17 68 0 171 -7 229 -15z m-2075
-30 c167 -28 365 -74 365 -84 0 -4 -33 -20 -72 -36 -115 -44 -404 -186 -555
-271 -76 -44 -142 -81 -147 -83 -4 -2 -5 12 -1 30 13 62 86 293 122 386 l36
93 56 -6 c31 -4 119 -17 196 -29z m1561 -2 c50 -119 149 -443 142 -463 -2 -5
-49 18 -104 50 -200 115 -506 265 -636 311 -21 7 -38 16 -38 19 0 14 326 82
504 105 55 7 104 13 108 14 4 0 15 -16 24 -36z m1361 -66 c161 -110 30 -362
-152 -292 -89 33 -131 142 -90 229 42 88 160 119 242 63z m-2173 -133 c267
-96 602 -258 863 -418 78 -48 144 -94 147 -104 9 -31 36 -235 45 -347 28 -322
22 -642 -19 -963 -11 -87 -23 -164 -25 -172 -9 -28 -285 -195 -507 -306 -146
-73 -357 -164 -505 -219 l-102 -37 -113 42 c-293 111 -558 238 -810 390 -84
50 -161 97 -171 104 -13 10 -22 47 -37 152 -54 394 -55 832 0 1224 22 158 4
137 213 262 184 111 319 182 491 259 113 50 408 168 425 169 2 0 49 -16 105
-36z m-1408 -681 c-42 -209 -41 -998 1 -1170 3 -13 1 -23 -4 -23 -17 0 -216
165 -329 273 -92 88 -234 243 -292 319 -11 14 -5 25 40 80 98 119 216 243 320
335 120 107 249 212 261 213 5 0 6 -12 3 -27z m2726 -55 c185 -147 527 -500
515 -531 -11 -27 -200 -238 -298 -332 -121 -116 -322 -280 -327 -266 -2 5 4
82 12 172 21 210 21 651 1 854 -16 163 -17 185 -11 185 3 0 51 -37 108 -82z
m705 -807 c88 -166 143 -358 143 -496 0 -90 -27 -205 -67 -285 -54 -107 -188
-241 -298 -297 -185 -94 -456 -152 -704 -153 -113 0 -123 1 -116 18 35 84 120
366 147 487 l35 150 47 35 c289 211 546 448 701 642 30 38 30 38 46 17 9 -12
39 -65 66 -118z m-3915 -143 c125 -124 309 -280 437 -370 l89 -63 12 -60 c23
-116 79 -322 124 -451 25 -72 46 -135 46 -139 0 -13 -320 2 -410 20 -111 21
-219 51 -300 83 -36 14 -66 26 -68 27 -1 1 1 28 6 59 33 207 -118 388 -325
390 l-72 1 -7 54 c-10 80 2 225 26 314 25 95 83 231 141 333 l44 76 74 -84
c41 -45 123 -131 183 -190z m858 -639 c161 -92 385 -203 533 -265 64 -27 117
-52 117 -55 0 -16 -366 -90 -515 -104 -38 -4 -77 -9 -86 -11 -12 -3 -25 18
-53 91 -49 129 -135 415 -124 415 2 0 60 -32 128 -71z m1966 -43 c-27 -96 -92
-290 -121 -359 l-16 -38 -57 6 c-182 22 -562 99 -562 114 0 3 28 17 63 30 159
62 515 240 677 339 19 12 36 18 38 12 2 -5 -8 -52 -22 -104z m-3153 0 c74 -30
120 -124 98 -198 -47 -154 -256 -165 -316 -16 -53 134 85 270 218 214z m2272
-418 c182 -54 406 -102 627 -132 l46 -7 -45 -81 c-265 -479 -630 -694 -974
-573 -208 72 -412 267 -573 546 -63 108 -63 119 -4 119 91 0 532 96 693 150
71 23 76 23 230 -22z"/>
<path d="M1883 3310 c-60 -13 -96 -34 -140 -84 -58 -65 -63 -94 -63 -338 l0
-215 28 -57 29 -56 -29 -56 -28 -57 0 -215 c0 -137 4 -229 12 -254 17 -57 88
-133 146 -155 44 -17 94 -18 762 -18 562 0 723 3 752 13 65 23 114 67 144 129
l29 58 0 205 c0 227 -4 262 -40 314 l-24 36 24 36 c13 20 28 52 32 73 14 63
10 432 -5 473 -23 65 -67 114 -129 144 l-58 29 -700 2 c-385 0 -719 -3 -742
-7z m1449 -188 c22 -22 23 -30 26 -210 2 -115 -1 -198 -7 -215 -22 -58 -15
-58 -765 -55 l-684 3 -26 24 -26 24 0 202 c0 210 2 220 45 244 14 7 223 10
717 8 l697 -2 23 -23z m-27 -657 c22 -8 39 -25 46 -42 6 -17 9 -100 7 -215 -3
-180 -4 -188 -26 -210 l-23 -23 -687 -3 c-378 -1 -697 0 -710 3 -12 3 -31 14
-42 25 -19 19 -20 34 -20 223 0 198 1 204 23 224 12 11 29 23 37 26 8 3 318 6
688 6 567 1 678 -1 707 -14z"/>
<path d="M2045 2958 c-52 -45 -27 -131 40 -144 59 -11 134 1 158 24 32 32 28
88 -7 118 -23 20 -38 24 -96 24 -57 0 -73 -4 -95 -22z"/>
<path d="M2715 2955 c-15 -15 -25 -36 -25 -54 0 -82 24 -91 255 -91 l187 0 29
29 c17 18 29 40 29 56 0 16 -12 38 -29 56 l-29 29 -197 0 c-195 0 -196 0 -220
-25z"/>
<path d="M2062 2300 c-27 -12 -51 -62 -44 -96 8 -44 47 -64 123 -64 85 0 123
26 123 84 0 58 -29 80 -111 83 -38 2 -78 -2 -91 -7z"/>
<path d="M2735 2298 c-52 -28 -62 -92 -20 -133 24 -25 25 -25 220 -25 l197 0
29 29 c17 18 29 40 29 56 0 16 -12 38 -29 56 l-29 29 -189 0 c-117 0 -196 -5
-208 -12z"/>
</g>
</svg>
