<?xml version="1.0" standalone="no"?>
<!DOCTYPE svg PUBLIC "-//W3C//DTD SVG 20010904//EN"
 "http://www.w3.org/TR/2001/REC-SVG-20010904/DTD/svg10.dtd">
<svg version="1.0" xmlns="http://www.w3.org/2000/svg"
 width="900.000000pt" height="500.000000pt" viewBox="0 0 900.000000 500.000000"
 preserveAspectRatio="xMidYMid meet">
<metadata>
Created by potrace 1.16, written by Peter Selinger 2001-2019
</metadata>
<g transform="translate(0.000000,500.000000) scale(0.100000,-0.100000)"
fill="#000000" stroke="none">
<path d="M2127 4576 c-59 -22 -91 -53 -114 -111 -17 -44 -18 -2931 -1 -2988
24 -81 101 -127 209 -127 l43 0 -126 -127 c-111 -113 -127 -133 -133 -171 -9
-54 21 -119 66 -146 34 -20 115 -25 145 -8 10 6 118 110 239 231 l220 221
-203 0 c-111 0 -202 1 -202 3 0 1 182 185 405 407 299 300 405 411 405 428 0
13 -20 51 -44 85 -184 260 -215 581 -83 867 52 112 165 250 267 326 101 74
239 133 365 155 95 16 280 6 373 -20 308 -89 542 -340 609 -655 24 -112 13
-318 -21 -421 -157 -465 -645 -716 -1088 -559 -135 48 -89 77 -449 -282 -175
-175 -319 -322 -319 -326 0 -5 942 -7 2093 -6 l2093 3 41 27 c25 16 49 44 62
71 l21 44 -2 1485 -3 1484 -25 37 c-13 20 -43 46 -65 59 l-40 23 -2350 2
c-1948 2 -2356 0 -2388 -11z"/>
<path d="M3596 3324 c-252 -61 -431 -289 -430 -549 1 -119 28 -210 94 -309
109 -162 271 -249 465 -249 160 -1 288 53 400 167 39 39 83 94 98 123 36 68
67 191 67 269 0 361 -345 633 -694 548z"/>
<path d="M4068 1079 l-27 -10 -3 -149 c-2 -82 -6 -151 -10 -155 -3 -4 -66 -20
-140 -36 -254 -57 -546 -155 -595 -201 -48 -45 -65 -116 -39 -166 26 -50 62
-75 115 -80 43 -4 71 4 198 51 126 47 364 114 468 132 331 55 765 43 1074 -31
111 -27 261 -74 364 -115 137 -55 209 -51 258 14 19 25 24 44 24 87 0 79 -25
110 -123 150 -159 67 -388 135 -567 170 -104 20 -95 6 -95 144 0 162 -4 182
-43 195 -39 14 -821 13 -859 0z"/>
</g>
</svg>
