<?xml version="1.0" standalone="no"?>
<!DOCTYPE svg PUBLIC "-//W3C//DTD SVG 20010904//EN"
 "http://www.w3.org/TR/2001/REC-SVG-20010904/DTD/svg10.dtd">
<svg version="1.0" xmlns="http://www.w3.org/2000/svg"
 width="225.000000pt" height="225.000000pt" viewBox="0 0 225.000000 225.000000"
 preserveAspectRatio="xMidYMid meet">

<g transform="translate(0.000000,225.000000) scale(0.100000,-0.100000)"
fill="#000000" stroke="none">
<path d="M253 1795 c-64 -27 -63 -21 -63 -575 l0 -502 29 -29 29 -29 271 0
271 0 -6 -26 c-28 -111 -26 -108 -87 -115 -66 -7 -116 -40 -141 -93 -16 -33
-19 -35 -74 -38 -51 -3 -57 -5 -60 -27 -2 -13 2 -28 10 -32 7 -5 230 -9 494
-9 l482 0 5 -29 c5 -23 20 -38 67 -65 70 -41 113 -46 146 -15 33 31 152 31
183 0 30 -30 76 -26 138 9 66 38 87 69 80 115 -5 28 1 46 30 95 20 33 42 60
50 60 8 0 28 13 44 29 26 27 29 35 29 99 0 80 -20 116 -70 127 -18 4 -32 15
-36 28 -4 12 -17 38 -30 58 -18 28 -21 45 -17 78 5 38 3 44 -31 75 l-36 35 0
351 c0 391 -1 399 -65 426 -50 21 -1594 20 -1642 -1z m1621 -71 c11 -11 16
-35 16 -80 l0 -64 -815 0 -815 0 0 64 c0 45 5 69 16 80 14 14 100 16 799 16
699 0 785 -2 799 -16z m16 -444 l0 -230 -28 0 c-16 0 -38 -9 -50 -20 -17 -16
-35 -20 -95 -20 -61 0 -77 3 -92 20 -27 30 -75 25 -144 -15 -65 -38 -78 -61
-68 -115 10 -46 -51 -140 -102 -157 -31 -10 -146 -13 -543 -11 l-503 3 -3 388
-2 387 815 0 815 0 0 -230z m-289 -324 c26 -22 36 -24 124 -22 84 2 98 6 120
26 l24 23 45 -27 c43 -25 44 -27 39 -67 -5 -31 -1 -47 14 -68 12 -15 32 -50
47 -79 21 -41 33 -53 59 -60 30 -8 32 -11 35 -60 l3 -52 -40 -16 c-23 -9 -41
-19 -41 -23 0 -4 -19 -38 -41 -75 -35 -58 -40 -75 -36 -107 5 -38 3 -40 -39
-65 l-45 -27 -24 23 c-21 20 -36 23 -120 25 -90 2 -99 0 -126 -22 l-29 -25
-42 24 c-41 22 -43 26 -40 63 2 30 -4 51 -26 86 -17 25 -33 56 -36 67 -9 27
-53 62 -77 62 -16 0 -19 8 -19 59 0 57 1 59 29 64 32 7 43 20 97 112 29 49 35
66 30 97 -6 35 -4 38 36 62 24 14 45 26 47 26 2 0 16 -11 32 -24z m-341 -350
c0 -30 3 -61 6 -70 5 -14 -18 -16 -219 -16 l-226 0 20 67 c10 38 19 69 19 70
0 2 90 3 200 3 l200 0 0 -54z m125 -186 l16 -30 -391 0 c-214 0 -390 4 -390 8
0 11 30 38 50 45 8 3 169 6 357 6 l342 1 16 -30z"/>
<path d="M317 1676 c-13 -33 16 -62 49 -49 9 3 14 15 12 32 -2 20 -9 27 -29
29 -17 2 -29 -3 -32 -12z"/>
<path d="M447 1684 c-13 -14 -7 -43 12 -53 24 -13 55 8 50 35 -4 19 -48 32
-62 18z"/>
<path d="M577 1684 c-13 -13 -7 -52 8 -58 27 -10 46 5 43 33 -3 26 -35 41 -51
25z"/>
<path d="M742 1207 c-45 -45 -82 -87 -82 -92 0 -6 38 -48 84 -94 68 -68 87
-82 105 -76 37 12 25 47 -39 110 l-60 59 60 61 c60 61 75 97 44 109 -26 10
-26 9 -112 -77z"/>
<path d="M1292 1278 c-22 -22 -12 -43 48 -103 l60 -59 -61 -62 c-62 -63 -70
-87 -37 -108 15 -9 31 2 103 74 47 46 85 89 85 95 0 13 -162 175 -176 175 -5
0 -15 -5 -22 -12z"/>
<path d="M1045 1136 c-42 -74 -75 -143 -73 -153 2 -11 14 -19 29 -21 24 -3 33
9 103 132 43 74 76 143 74 153 -2 11 -14 19 -30 21 -24 3 -32 -7 -103 -132z"/>
<path d="M1664 779 c-18 -5 -48 -27 -67 -48 -62 -68 -62 -154 0 -222 65 -72
168 -77 234 -10 88 88 66 222 -45 272 -45 20 -74 22 -122 8z m97 -75 c17 -8
37 -30 45 -50 12 -29 12 -39 0 -68 -29 -70 -112 -83 -161 -24 -31 36 -32 76
-4 112 36 46 73 55 120 30z"/>
</g>
</svg>
