<?xml version="1.0" standalone="no"?>
<!DOCTYPE svg PUBLIC "-//W3C//DTD SVG 20010904//EN"
 "http://www.w3.org/TR/2001/REC-SVG-20010904/DTD/svg10.dtd">
<svg version="1.0" xmlns="http://www.w3.org/2000/svg"
 width="1200.000000pt" height="1200.000000pt" viewBox="0 0 1200.000000 1200.000000"
 preserveAspectRatio="xMidYMid meet">

<g transform="translate(0.000000,1200.000000) scale(0.100000,-0.100000)"
fill="#000000" stroke="none">
<path d="M5873 9376 c-92 -23 -181 -74 -253 -145 -107 -105 -160 -230 -160
-375 0 -196 88 -351 270 -477 35 -24 75 -60 87 -78 l23 -35 -2 -747 c-3 -718
-4 -748 -22 -768 -11 -12 -31 -21 -46 -21 -26 0 -531 135 -670 179 -113 36
-111 33 -117 212 -8 214 -5 221 106 302 171 125 251 272 251 462 0 155 -43
258 -156 372 -159 162 -384 214 -576 133 -233 -97 -359 -294 -345 -535 12
-199 81 -309 283 -455 67 -49 99 -113 99 -202 0 -57 -4 -71 -23 -90 -20 -20
-32 -23 -100 -21 -60 1 -120 13 -272 56 -107 31 -310 88 -450 127 -140 39
-274 82 -297 96 -67 39 -86 91 -87 240 -1 120 -1 123 29 166 17 24 59 62 95
85 159 104 240 253 240 441 0 120 -57 268 -140 364 -196 226 -577 232 -796 14
-102 -102 -147 -216 -147 -376 0 -196 77 -346 222 -434 123 -75 148 -128 160
-328 13 -205 52 -303 163 -403 102 -92 81 -85 1988 -610 272 -75 513 -145 535
-155 75 -36 69 39 75 -997 l5 -931 25 -27 c43 -46 108 -78 157 -78 51 0 88 23
118 74 19 32 20 57 25 440 l5 406 27 40 c15 23 42 53 60 66 18 14 296 153 618
310 322 157 792 387 1045 512 253 125 551 271 662 325 110 54 228 116 261 138
115 79 197 197 228 328 13 57 16 148 18 514 2 523 -3 493 112 573 91 63 129
100 175 170 59 91 84 174 84 287 0 107 -17 167 -70 265 -70 125 -167 206 -300
248 -102 31 -275 30 -360 -3 -80 -31 -152 -79 -212 -143 -67 -71 -99 -129
-123 -222 -63 -245 28 -468 247 -608 44 -28 79 -59 89 -78 14 -28 16 -84 17
-468 0 -308 -3 -448 -11 -477 -20 -68 -71 -103 -359 -247 -367 -183 -727 -357
-740 -357 -19 0 -23 75 -25 436 -2 401 -4 388 86 454 108 78 152 118 192 178
159 231 102 560 -128 734 -258 195 -650 108 -800 -179 -47 -89 -62 -168 -56
-296 6 -122 29 -189 93 -276 41 -56 68 -79 185 -164 88 -64 85 -41 87 -553 2
-448 2 -451 -20 -495 -25 -50 19 -26 -606 -333 -426 -209 -447 -216 -468 -156
-17 49 -18 2431 -2 2481 18 52 54 95 117 138 116 79 190 179 227 305 26 88 17
248 -19 341 -56 147 -180 267 -326 316 -81 27 -232 35 -307 15z m212 -344
c157 -77 153 -300 -7 -367 -180 -75 -354 127 -247 288 62 94 161 125 254 79z
m2932 -331 c113 -52 137 -227 43 -321 -141 -141 -383 3 -331 197 32 118 170
177 288 124z m-5704 -215 c73 -30 121 -104 121 -186 0 -74 -26 -125 -81 -160
-87 -56 -196 -44 -265 27 -61 63 -74 132 -39 208 47 102 167 152 264 111z
m1565 -421 c49 -21 81 -52 103 -100 26 -56 24 -112 -6 -172 -61 -121 -199
-150 -299 -62 -72 64 -96 126 -76 198 31 115 168 181 278 136z m2663 -91 c125
-63 131 -268 10 -346 -41 -26 -53 -29 -112 -26 -52 3 -75 9 -108 31 -49 32
-91 110 -91 167 0 46 30 108 68 144 55 51 163 65 233 30z"/>
<path d="M8390 6141 c-163 -5 -189 -8 -220 -27 -133 -77 -92 -250 70 -294 27
-8 122 -14 235 -15 105 -1 198 -3 207 -3 33 -3 96 -71 112 -120 8 -26 74 -267
146 -537 72 -269 181 -672 241 -895 331 -1217 322 -1177 298 -1225 -24 -48
-57 -65 -154 -75 -59 -7 -1247 -9 -3395 -8 l-3305 3 -50 25 c-96 48 -96 73 9
446 41 148 123 447 181 664 58 217 119 442 135 500 16 58 90 332 166 610 75
278 145 522 155 542 40 79 -60 72 1189 78 l1116 5 48 25 c82 42 109 133 67
226 -36 80 59 75 -1268 72 l-1178 -3 -68 -32 c-82 -39 -163 -117 -200 -193
-47 -98 -144 -437 -416 -1465 -77 -291 -175 -651 -217 -800 -123 -436 -125
-442 -125 -535 0 -47 4 -107 11 -134 36 -158 167 -295 329 -342 50 -14 354
-16 3496 -15 l3440 0 59 20 c83 29 134 61 195 123 92 93 139 225 127 358 -8
95 -48 249 -342 1330 -146 536 -288 1058 -315 1160 -60 222 -108 326 -184 404
-88 89 -222 139 -360 134 -27 -1 -133 -4 -235 -7z"/>
<path d="M3618 5579 c-131 -19 -231 -106 -272 -238 -48 -151 -286 -1018 -380
-1385 -62 -238 -48 -355 54 -457 76 -77 137 -99 300 -109 173 -11 5318 -10
5406 0 241 30 370 193 334 423 -22 146 -401 1509 -440 1587 -36 72 -101 131
-176 161 l-59 24 -655 0 c-642 0 -656 0 -695 -21 -56 -28 -88 -91 -82 -161 5
-66 28 -100 85 -126 46 -20 63 -20 627 -22 603 -2 601 -2 649 -44 31 -28 45
-66 101 -279 30 -114 111 -411 180 -661 69 -250 125 -467 125 -481 0 -15 -9
-35 -21 -46 -21 -19 -80 -19 -2719 -19 -1484 0 -2702 3 -2706 7 -14 15 19 159
116 508 54 195 121 443 150 550 107 404 110 413 173 448 30 16 99 17 928 18
861 1 897 2 934 20 57 28 78 63 83 137 3 52 0 67 -20 96 -13 19 -39 44 -58 55
-35 21 -46 21 -970 22 -514 1 -961 -2 -992 -7z"/>
<path d="M5600 3280 c-54 -13 -90 -60 -90 -119 0 -54 23 -91 70 -116 42 -22
784 -22 835 -1 97 41 98 179 1 226 -40 19 -59 20 -412 19 -203 -1 -385 -5
-404 -9z"/>
</g>
</svg>
